<?xml version="1.0" encoding="UTF-8" standalone="no"?>
<svg
   xmlns:dc="http://purl.org/dc/elements/1.1/"
   xmlns:cc="http://creativecommons.org/ns#"
   xmlns:rdf="http://www.w3.org/1999/02/22-rdf-syntax-ns#"
   xmlns:svg="http://www.w3.org/2000/svg"
   xmlns="http://www.w3.org/2000/svg"
   id="svg8"
   version="1.1"
   viewBox="0 0 4.2333332 4.2333335"
   height="16"
   width="16">
  <defs
     id="defs2" />
  <metadata
     id="metadata5">
    <rdf:RDF>
      <cc:Work
         rdf:about="">
        <dc:format>image/svg+xml</dc:format>
        <dc:type
           rdf:resource="http://purl.org/dc/dcmitype/StillImage" />
        <dc:title></dc:title>
      </cc:Work>
    </rdf:RDF>
  </metadata>
  <g
     transform="translate(0,-292.76665)"
     id="layer1">
    <g
       id="text4506"
       style="font-style:normal;font-weight:normal;font-size:3.93085957px;line-height:2.45678711px;font-family:sans-serif;letter-spacing:0px;word-spacing:0px;fill:#1d99f3;fill-opacity:1;stroke:none;stroke-width:0.0982715"
       aria-label="12">
      <path
         id="path5423"
         style="font-style:normal;font-variant:normal;font-weight:normal;font-stretch:normal;font-family:'Noto Sans';-inkscape-font-specification:'Noto Sans';fill:#1d99f3;fill-opacity:1;stroke-width:0.0982715"
         d="M 1.1905731,296.30652 H 0.85276483 v -1.96159 q 0,-0.26104 0.0153549,-0.48368 -0.0537422,0.0576 -0.1151619,0.10748 -0.19577524,0.16315 -0.4280184,0.35317 l -0.18042032,-0.23225 0.76006855,-0.58924 H 1.1905731 Z" />
      <path
         id="path5425"
         style="font-style:normal;font-variant:normal;font-weight:normal;font-stretch:normal;font-family:'Noto Sans';-inkscape-font-specification:'Noto Sans';fill:#1d99f3;fill-opacity:1;stroke-width:0.0982715"
         d="m 4.0888142,296.30652 h -1.856026 v -0.28791 l 0.7351168,-0.74279 q 0.3320502,-0.33589 0.4395346,-0.47984 0.1074845,-0.14395 0.1593073,-0.27831 0.053742,-0.13436 0.053742,-0.28982 0,-0.22265 -0.1324362,-0.34741 -0.1324361,-0.12476 -0.3627599,-0.12476 -0.1727429,0 -0.3282115,0.0576 -0.1535492,0.0576 -0.347405,0.20921 l -0.1842591,-0.23224 q 0.3934699,-0.33013 0.8598756,-0.33013 0.3915504,0 0.6199549,0.20153 0.2303238,0.19962 0.2303238,0.5451 0,0.18426 -0.067178,0.35701 -0.067178,0.17082 -0.2015333,0.34932 -0.1343556,0.17658 -0.4510508,0.4856 l -0.5854064,0.57773 v 0.0154 h 1.4184108 z" />
    </g>
  </g>
</svg>
