<?xml version="1.0" encoding="UTF-8" standalone="no"?>
<svg
   xmlns:dc="http://purl.org/dc/elements/1.1/"
   xmlns:cc="http://creativecommons.org/ns#"
   xmlns:rdf="http://www.w3.org/1999/02/22-rdf-syntax-ns#"
   xmlns:svg="http://www.w3.org/2000/svg"
   xmlns="http://www.w3.org/2000/svg"
   id="svg8"
   version="1.1"
   viewBox="0 0 4.2333332 4.2333335"
   height="16"
   width="16">
  <defs
     id="defs2" />
  <metadata
     id="metadata5">
    <rdf:RDF>
      <cc:Work
         rdf:about="">
        <dc:format>image/svg+xml</dc:format>
        <dc:type
           rdf:resource="http://purl.org/dc/dcmitype/StillImage" />
        <dc:title></dc:title>
      </cc:Work>
    </rdf:RDF>
  </metadata>
  <g
     transform="translate(0,-292.76665)"
     id="layer1">
    <g
       id="text4506"
       style="font-style:normal;font-weight:normal;font-size:3.93085957px;line-height:2.45678711px;font-family:sans-serif;letter-spacing:0px;word-spacing:0px;fill:#da4453;fill-opacity:1;stroke:none;stroke-width:0.0982715"
       aria-label="Ø">
      <path
         id="path4617"
         style="font-style:normal;font-variant:normal;font-weight:normal;font-stretch:normal;font-family:'Noto Sans';-inkscape-font-specification:'Noto Sans';fill:#da4453;fill-opacity:1;stroke-width:0.0982715"
         d="m 3.4122381,294.88235 q 0,0.6737 -0.341647,1.05949 -0.3397276,0.38579 -0.952005,0.38579 -0.4452927,0 -0.7274394,-0.18426 l -0.1880978,0.2668 -0.23992059,-0.15547 0.20345269,-0.29175 q -0.3454857,-0.38003 -0.3454857,-1.08444 0,-0.68521 0.3358889,-1.06141 0.3378082,-0.37811 0.9654406,-0.37811 0.3915504,0 0.6986489,0.17658 l 0.1823396,-0.25911 0.2380013,0.16122 -0.199614,0.28023 q 0.3704375,0.38963 0.3704375,1.08444 z m -0.3742762,0 q 0,-0.50671 -0.199614,-0.79462 l -1.2591034,1.78501 q 0.2188076,0.14971 0.5393416,0.14971 0.4510507,0 0.6852133,-0.2879 0.2341625,-0.28791 0.2341625,-0.8522 z m -1.8445098,0 q 0,0.49712 0.1861784,0.77734 l 1.2533454,-1.77157 q -0.2092108,-0.13819 -0.5105511,-0.13819 -0.4568089,0 -0.6928908,0.28982 -0.2360819,0.2879 -0.2360819,0.8426 z" />
    </g>
  </g>
</svg>
