<?xml version="1.0" encoding="UTF-8" standalone="no"?>
<svg
   xmlns:dc="http://purl.org/dc/elements/1.1/"
   xmlns:cc="http://creativecommons.org/ns#"
   xmlns:rdf="http://www.w3.org/1999/02/22-rdf-syntax-ns#"
   xmlns:svg="http://www.w3.org/2000/svg"
   xmlns="http://www.w3.org/2000/svg"
   id="svg8"
   version="1.1"
   viewBox="0 0 4.2333332 4.2333335"
   height="16"
   width="16">
  <defs
     id="defs2" />
  <metadata
     id="metadata5">
    <rdf:RDF>
      <cc:Work
         rdf:about="">
        <dc:format>image/svg+xml</dc:format>
        <dc:type
           rdf:resource="http://purl.org/dc/dcmitype/StillImage" />
        <dc:title></dc:title>
      </cc:Work>
    </rdf:RDF>
  </metadata>
  <g
     transform="translate(0,-292.76665)"
     id="layer1">
    <g
       id="text4506"
       style="font-style:normal;font-weight:normal;font-size:3.93085957px;line-height:2.45678711px;font-family:sans-serif;letter-spacing:0px;word-spacing:0px;fill:#000000;fill-opacity:1;stroke:none;stroke-width:0.0982715"
       aria-label="ab">
      <path
         id="path4551"
         style="font-style:normal;font-variant:normal;font-weight:normal;font-stretch:normal;font-family:'Noto Sans';-inkscape-font-specification:'Noto Sans';fill:#2ecc71;fill-opacity:1;stroke-width:0.0982715"
         d="m 1.4592841,296.35739 -0.067178,-0.29942 h -0.015355 q -0.1573879,0.1977 -0.3147759,0.26871 -0.15546853,0.0691 -0.39346979,0.0691 -0.31093713,0 -0.48751872,-0.16315 -0.17658158,-0.16314 -0.17658158,-0.46064 0,-0.64107 1.01150539,-0.67178 l 0.3570019,-0.0134 v -0.12476 q 0,-0.23992 -0.1036457,-0.35316 -0.1036457,-0.11516 -0.33205019,-0.11516 -0.16698475,0 -0.31669523,0.0499 -0.1477911,0.0499 -0.27830792,0.11132 L 0.23664858,294.3958 q 0.1593073,-0.0845 0.34740507,-0.13244 0.18809777,-0.048 0.37235681,-0.048 0.38195364,0 0.56813204,0.1689 0.1861784,0.16891 0.1861784,0.53743 v 1.43568 z m -0.71208442,-0.23992 q 0.28982412,0 0.45488952,-0.15547 0.1669847,-0.15739 0.1669847,-0.44529 v -0.19002 l -0.3109371,0.0134 q -0.36275998,0.0134 -0.52974474,0.11516 -0.16506539,0.10173 -0.16506539,0.32053 0,0.16507 0.099807,0.25336 0.10172635,0.0883 0.28406603,0.0883 z" />
      <path
         id="path4553"
         style="font-style:normal;font-variant:normal;font-weight:normal;font-stretch:normal;font-family:'Noto Sans';-inkscape-font-specification:'Noto Sans';fill:#2ecc71;fill-opacity:1;stroke-width:0.0982715"
         d="m 3.3594556,294.21538 q 0.4165022,0 0.6429872,0.2879 0.2264851,0.28599 0.2264851,0.80038 0,0.52207 -0.2303238,0.80805 -0.2303238,0.28407 -0.6391485,0.28407 -0.2130496,0 -0.3800343,-0.0768 -0.1669848,-0.0768 -0.2725499,-0.2284 h -0.026871 q -0.0595,0.23032 -0.071017,0.26679 H 2.3613857 v -2.98653 h 0.3454857 v 0.72552 q 0,0.21689 -0.019194,0.43378 h 0.019194 q 0.2130496,-0.31478 0.6525842,-0.31478 z m -0.057581,0.28599 q -0.3186146,0 -0.4568089,0.18042 -0.1381943,0.18042 -0.1381943,0.61035 v 0.0154 q 0,0.43186 0.1401137,0.61803 0.142033,0.18426 0.462567,0.18426 0.284066,0 0.4222603,-0.20729 0.1401136,-0.20921 0.1401136,-0.60268 0,-0.39923 -0.1401136,-0.59884 -0.1401137,-0.19961 -0.4299378,-0.19961 z" />
    </g>
  </g>
</svg>
